:FULLY-SPECIFIED
:FORCE-ALL-JOINTS-BE-3DOF
:DEGREES
404
root 9.69258 16.8759 20.446 6.54739 -1.56641 -7.64815
lfemur -43.0834 -3.97295 -8.46321
ltibia 20.9122 0 0
lfoot -15.981 13.4916 0
ltoes -12.431 0 0
rfemur 17.6069 5.87048 33.1958
rtibia -1.62856e-14 0 0
rfoot -7.8155 6.95956 0
rtoes -11.2941 0 0
lowerback -8.20685 3.21852 3.46282
upperback 0.18896 3.75921 4.07416
thorax 4.74817 1.89522 2.76195
lowerneck -19.0144 -6.08407 -13.3468
upperneck 21.1155 -7.77981 12.9669
head 11.0376 -3.15165 5.78215
lclavicle -2.85001e-14 -2.97303e-14 0
lhumerus -53.7141 -9.28321 96.4467
lradius 27.1919 0 0
lwrist 8.19579 0 0
lhand -11.4669 -27.8872 0
lfingers 7.12502 0 0
lthumb 14.5706 1.58059 0
rclavicle -2.85001e-14 -2.97303e-14 0
rhumerus -27.1972 15.1717 -84.9752
rradius 39.5121 0 0
rwrist -17.9707 0 0
rhand -30.7305 -20.737 0
rfingers 7.12502 0 0
rthumb -4.02298 -50.6784 0
405
root 9.70762 16.85 20.6167 6.6089 -1.58398 -7.76243
lfemur -42.9954 -3.17661 -8.93322
ltibia 21.5304 0 0
lfoot -15.7697 12.4439 0
ltoes -12.2441 0 0
rfemur 18.1652 5.83373 33.2716
rtibia -2.28529e-14 0 0
rfoot -7.64698 6.98738 0
rtoes -12.2257 0 0
lowerback -8.33345 3.25112 3.48543
upperback 0.154089 3.79409 4.0749
thorax 4.7836 1.91262 2.76156
lowerneck -19.0654 -6.09422 -13.303
upperneck 21.1486 -7.79406 12.9265
head 11.0577 -3.15728 5.75737
lclavicle -1.06047e-14 -1.21774e-14 0
lhumerus -53.8229 -9.24188 96.4272
lradius 27.1456 0 0
lwrist 7.88726 0 0
lhand -11.1393 -27.5209 0
lfingers 7.12502 0 0
lthumb 14.8862 1.92442 0
rclavicle -1.06047e-14 -1.21774e-14 0
rhumerus -27.526 15.042 -85.1914
rradius 39.3272 0 0
rwrist -17.8212 0 0
rhand -30.5088 -20.9272 0
rfingers 7.12502 0 0
rthumb -3.80885 -50.8723 0
406
root 9.72266 16.8241 20.7874 6.67428 -1.59938 -7.86765
lfemur -42.8744 -2.21195 -9.53021
ltibia 22.2509 0 0
lfoot -15.4545 11.2766 0
ltoes -12.189 0 0
rfemur 18.733 5.79537 33.3382
rtibia -2.8625e-14 0 0
rfoot -7.45407 6.99945 0
rtoes -13.2651 0 0
lowerback -8.46229 3.29044 3.49711
upperback 0.115117 3.83946 4.06599
thorax 4.81568 1.93507 2.75841
lowerneck -19.1389 -6.11603 -13.2613
upperneck 21.1979 -7.82421 12.8901
head 11.0911 -3.16902 5.73232
lclavicle 1.09393e-14 8.5229e-15 0
lhumerus -53.8997 -9.21447 96.3825
lradius 27.0701 0 0
lwrist 7.53736 0 0
lhand -10.7613 -27.0458 0
lfingers 7.12502 0 0
lthumb 15.2505 2.3733 0
rclavicle 1.09393e-14 8.5229e-15 0
rhumerus -27.8878 14.8926 -85.4118
rradius 39.1397 0 0
rwrist -17.6924 0 0
rhand -30.2482 -21.196 0
rfingers 7.12502 0 0
rthumb -3.55715 -51.1452 0
407
root 9.73769 16.7981 20.9582 6.7497 -1.61212 -7.94224
lfemur -42.7519 -1.19442 -10.1978
ltibia 23.0091 0 0
lfoot -14.9385 10.1644 0
ltoes -12.2146 0 0
rfemur 19.2912 5.75545 33.3646
rtibia -3.29835e-14 0 0
rfoot -7.19104 6.99613 0
rtoes -14.2799 0 0
lowerback -8.58866 3.32966 3.4871
upperback 0.0675677 3.88815 4.04173
thorax 4.8369 1.95888 2.75111
lowerneck -19.2233 -6.1462 -13.2305
upperneck 21.2543 -7.86651 12.8695
head 11.1326 -3.18502 5.71342
lclavicle 3.22224e-14 2.8787e-14 0
lhumerus -53.943 -9.18513 96.3116
lradius 26.9635 0 0
lwrist 7.16822 0 0
lhand -10.3338 -26.493 0
lfingers 7.12502 0 0
lthumb 15.6623 2.895 0
rclavicle 3.22224e-14 2.8787e-14 0
rhumerus -28.2794 14.7217 -85.6361
rradius 38.9428 0 0
rwrist -17.5531 0 0
rhand -29.9772 -21.5103 0
rfingers 7.12502 0 0
rthumb -3.29547 -51.4639 0
408
root 9.75273 16.7722 21.129 6.84133 -1.62172 -7.96462
lfemur -42.6594 -0.239453 -10.8795
ltibia 23.7402 0 0
lfoot -14.1248 9.2821 0
ltoes -12.2701 0 0
rfemur 19.8203 5.71402 33.3201
rtibia -3.531e-14 0 0
rfoot -6.81216 6.97781 0
rtoes -15.1378 0 0
lowerback -8.70782 3.36194 3.44467
upperback 0.00696447 3.93299 3.9964
thorax 4.8397 1.98038 2.73825
lowerneck -19.3071 -6.18144 -13.2193
upperneck 21.3085 -7.91723 12.8763
head 11.1769 -3.20338 5.70711
lclavicle 4.93351e-14 4.50312e-14 0
lhumerus -53.9513 -9.13803 96.2134
lradius 26.8236 0 0
lwrist 6.80196 0 0
lhand -9.8578 -25.894 0
lfingers 7.12502 0 0
lthumb 16.1207 3.45729 0
rclavicle 4.93351e-14 4.50312e-14 0
rhumerus -28.6976 14.5273 -85.8643
rradius 38.7298 0 0
rwrist -17.3721 0 0
rhand -29.7245 -21.8371 0
rfingers 7.12502 0 0
rthumb -3.05142 -51.7947 0
409
root 9.76776 16.7463 21.2997 6.95533 -1.62769 -7.91323
lfemur -42.6284 0.537503 -11.5189
ltibia 24.3795 0 0
lfoot -12.9164 8.80434 0
ltoes -12.3043 0 0
rfemur 20.301 5.67112 33.1737
rtibia -3.49861e-14 0 0
rfoot -6.2717 6.94485 0
rtoes -15.7064 0 0
lowerback -8.81505 3.38045 3.35908
upperback -0.0711697 3.96681 3.92433
thorax 4.81657 1.99588 2.71843
lowerneck -19.3789 -6.21844 -13.2366
upperneck 21.3514 -7.97265 12.9222
head 11.2191 -3.22222 5.71982
lclavicle 5.83681e-14 5.36719e-14 0
lhumerus -53.9232 -9.05733 96.0867
lradius 26.6485 0 0
lwrist 6.46069 0 0
lhand -9.33428 -25.28 0
lfingers 7.12502 0 0
lthumb 16.6246 4.02795 0
rclavicle 5.83681e-14 5.36719e-14 0
rhumerus -29.139 14.3078 -86.096
rradius 38.494 0 0
rwrist -17.1182 0 0
rhand -29.5186 -22.1435 0
rfingers 7.12502 0 0
rthumb -2.85258 -52.1042 0
410
root 9.79388 16.7496 21.4704 7.10786 -1.65082 -7.77176
lfemur -42.6627 1.17142 -12.1378
ltibia 24.8782 0 0
lfoot -11.0442 8.87525 0
ltoes -12.5162 0 0
rfemur 20.7222 5.65002 32.8989
rtibia -3.14153e-14 0 0
rfoot -5.57393 6.91423 0
rtoes -15.8535 0 0
lowerback -8.91945 3.38898 3.21442
upperback -0.16924 3.9967 3.81705
thorax 4.76928 2.00858 2.69286
lowerneck -19.4474 -6.25855 -13.2855
upperneck 21.3808 -8.03631 13.0221
head 11.2613 -3.24141 5.75712
lclavicle 5.77589e-14 5.31528e-14 0
lhumerus -53.8569 -8.93865 95.9299
lradius 26.4326 0 0
lwrist 6.16303 0 0
lhand -8.67155 -24.5542 0
lfingers 7.12502 0 0
lthumb 17.2622 4.695 0
rclavicle 5.77589e-14 5.31528e-14 0
rhumerus -29.6077 14.0604 -86.3371
rradius 38.2518 0 0
rwrist -16.7549 0 0
rhand -29.3515 -22.4565 0
rfingers 7.12502 0 0
rthumb -2.6912 -52.4194 0
411
root 9.82 16.7529 21.6412 7.29722 -1.69565 -7.55422
lfemur -42.7378 1.76166 -12.7855
ltibia 25.2782 0 0
lfoot -8.53198 9.38389 0
ltoes -12.9864 0 0
rfemur 21.0969 5.65534 32.5149
rtibia -2.49733e-14 0 0
rfoot -4.75628 6.88904 0
rtoes -15.6583 0 0
lowerback -9.02663 3.39376 3.0161
upperback -0.284147 4.02984 3.67742
thorax 4.70422 2.02205 2.66288
lowerneck -19.5235 -6.30466 -13.3595
upperneck 21.4035 -8.11191 13.1696
head 11.3082 -3.26242 5.81498
lclavicle 5.03225e-14 4.60297e-14 0
lhumerus -53.7531 -8.79379 95.7436
lradius 26.1763 0 0
lwrist 5.895 0 0
lhand -7.85048 -23.672 0
lfingers 7.12502 0 0
lthumb 18.052 5.50183 0
rclavicle 5.03225e-14 4.60297e-14 0
rhumerus -30.1069 13.7862 -86.5889
rradius 38.0117 0 0
rwrist -16.2999 0 0
rhand -29.1988 -22.8078 0
rfingers 7.12502 0 0
rthumb -2.54366 -52.7725 0
412
root 9.84611 16.7562 21.8119 7.50278 -1.73734 -7.28448
lfemur -42.843 2.28932 -13.4474
ltibia 25.6511 0 0
lfoot -5.722 10.1224 0
ltoes -13.4863 0 0
rfemur 21.4427 5.65914 32.06
rtibia -1.64991e-14 0 0
rfoot -3.82278 6.84884 0
rtoes -15.3063 0 0
lowerback -9.1266 3.3916 2.78537
upperback -0.412108 4.05912 3.51674
thorax 4.62075 2.03321 2.62735
lowerneck -19.5991 -6.35584 -13.4532
upperneck 21.4242 -8.19594 13.3446
head 11.358 -3.28579 5.88543
lclavicle 3.87157e-14 3.48867e-14 0
lhumerus -53.6144 -8.63117 95.5299
lradius 25.8868 0 0
lwrist 5.62985 0 0
lhand -6.98092 -22.7435 0
lfingers 7.12502 0 0
lthumb 18.8883 6.34925 0
rclavicle 3.87157e-14 3.48867e-14 0
rhumerus -30.6327 13.4886 -86.8444
rradius 37.7555 0 0
rwrist -15.8032 0 0
rhand -29.0643 -23.1716 0
rfingers 7.12502 0 0
rthumb -2.41374 -53.1378 0
413
root 9.87223 16.7596 21.9826 7.70393 -1.75104 -6.9864
lfemur -42.9672 2.73554 -14.1087
ltibia 26.0686 0 0
lfoot -2.95662 10.8828 0
ltoes -13.7876 0 0
rfemur 21.7767 5.6335 31.5723
rtibia -6.83232e-15 0 0
rfoot -2.77746 6.77318 0
rtoes -14.9826 0 0
lowerback -9.20939 3.37931 2.54344
upperback -0.549341 4.07746 3.34629
thorax 4.51825 2.03896 2.58511
lowerneck -19.6659 -6.41114 -13.5611
upperneck 21.4471 -8.28487 13.5268
head 11.409 -3.31207 5.96049
lclavicle 2.55955e-14 2.23081e-14 0
lhumerus -53.4432 -8.45921 95.2911
lradius 25.5713 0 0
lwrist 5.34082 0 0
lhand -6.1727 -21.8789 0
lfingers 7.12502 0 0
lthumb 19.6656 7.13809 0
rclavicle 2.55955e-14 2.23081e-14 0
rhumerus -31.181 13.1712 -87.0969
rradius 37.4651 0 0
rwrist -15.3148 0 0
rhand -28.9519 -23.5222 0
rfingers 7.12502 0 0
rthumb -2.30523 -53.4896 0
